<svg width="173" height="31" viewBox="0 0 173 31" fill="none" xmlns="http://www.w3.org/2000/svg">
<path d="M0 0.511858H3.00766V30.4842H0V0.511858Z" fill="black"/>
<path d="M13.082 30.2273C12.6237 30.684 12.0651 30.9124 11.4063 30.9124C10.7475 30.9124 10.1889 30.684 9.73059 30.2273C9.27228 29.7706 9.04313 29.214 9.04313 28.5574C9.04313 27.9009 9.27228 27.3443 9.73059 26.8875C10.1889 26.4308 10.7475 26.2025 11.4063 26.2025C12.0651 26.2025 12.6237 26.4308 13.082 26.8875C13.5403 27.3443 13.7695 27.9009 13.7695 28.5574C13.7695 29.214 13.5403 29.7706 13.082 30.2273Z" fill="black"/>
<path d="M31.7151 30.998C27.1606 30.998 23.3939 29.4994 20.4148 26.5022C17.4358 23.505 15.9463 19.8369 15.9463 15.498C15.9463 11.1592 17.4358 7.49114 20.4148 4.4939C23.3939 1.49666 27.1606 -0.00195312 31.7151 -0.00195312C34.4936 -0.00195312 37.0429 0.668857 39.3631 2.01048C41.6833 3.32355 43.4736 5.10762 44.7339 7.36269L42.07 8.90412C41.1247 7.07724 39.7212 5.62144 37.8593 4.53672C35.9974 3.45201 33.9493 2.90965 31.7151 2.90965C27.9626 2.90965 24.8977 4.12282 22.5202 6.54915C20.1427 8.97549 18.954 11.9585 18.954 15.498C18.954 19.0376 20.1427 22.0206 22.5202 24.4469C24.8977 26.8733 27.9626 28.0864 31.7151 28.0864C33.9493 28.0864 35.9974 27.5441 37.8593 26.4594C39.7212 25.3747 41.1247 23.9189 42.07 22.092L44.7339 23.5906C43.5022 25.8457 41.712 27.644 39.3631 28.9856C37.0429 30.3272 34.4936 30.998 31.7151 30.998Z" fill="black"/>
<path d="M59.3047 8.56158C61.9113 8.56158 63.9594 9.36084 65.4489 10.9594C66.967 12.5294 67.7261 14.656 67.7261 17.3392V30.4842H64.8903V17.3392C64.8903 15.4267 64.3747 13.9423 63.3435 12.8862C62.341 11.83 60.9087 11.3019 59.0469 11.3019C56.9845 11.3019 55.3088 11.9585 54.0198 13.2715C52.7308 14.5561 52.0863 16.5542 52.0863 19.266V30.4842H49.2505V0.511858H52.0863V12.4152C53.6903 9.84611 56.0965 8.56158 59.3047 8.56158Z" fill="black"/>
<path d="M83.1347 8.56158C86.3142 8.56158 88.8779 9.68911 90.8257 11.9442C92.8022 14.1707 93.7904 16.8111 93.7904 19.8654C93.7904 20.1794 93.7617 20.6219 93.7045 21.1928H74.8421C75.1286 23.3622 76.0452 25.0892 77.592 26.3737C79.1674 27.6297 81.1009 28.2577 83.3925 28.2577C85.0252 28.2577 86.4288 27.9294 87.6032 27.2729C88.8063 26.5878 89.7086 25.7029 90.3101 24.6182L92.8022 26.074C91.8569 27.5869 90.5679 28.7858 88.9352 29.6707C87.3024 30.5556 85.4406 30.998 83.3495 30.998C79.9695 30.998 77.2196 29.9419 75.0999 27.8295C72.9802 25.7172 71.9204 23.034 71.9204 19.7798C71.9204 16.5828 72.9659 13.9138 75.0569 11.7729C77.148 9.63202 79.8406 8.56158 83.1347 8.56158ZM83.1347 11.3019C80.9004 11.3019 79.0242 11.9727 77.5061 13.3143C76.0165 14.6274 75.1286 16.3401 74.8421 18.4525H90.8687C90.5822 16.1974 89.7086 14.4419 88.2477 13.1859C86.7868 11.9299 85.0825 11.3019 83.1347 11.3019Z" fill="black"/>
<path d="M101.137 12.6293C102.455 10.0317 104.718 8.73285 107.926 8.73285V11.4732C105.978 11.4732 104.36 12.0441 103.071 13.1859C101.782 14.3277 101.137 16.126 101.137 18.5809V30.4842H98.3012V9.0754H101.137V12.6293Z" fill="black"/>
<path d="M129.171 30.4842H125.39L114.648 20.1652V30.4842H111.812V0.511858H114.648V18.5381L124.874 9.0754H128.741L117.656 19.3516L129.171 30.4842Z" fill="black"/>
<path d="M149.379 9.0754H152.215V30.4842H149.379V26.2881C147.403 29.4281 144.51 30.998 140.7 30.998C137.635 30.998 135.014 29.9133 132.837 27.7439C130.689 25.5745 129.615 22.9198 129.615 19.7798C129.615 16.6399 130.689 13.9852 132.837 11.8157C135.014 9.6463 137.635 8.56158 140.7 8.56158C144.51 8.56158 147.403 10.1316 149.379 13.2715V9.0754ZM134.9 25.8171C136.532 27.4442 138.538 28.2577 140.915 28.2577C143.293 28.2577 145.298 27.4442 146.93 25.8171C148.563 24.1615 149.379 22.1491 149.379 19.7798C149.379 17.4106 148.563 15.4124 146.93 13.7853C145.298 12.1297 143.293 11.3019 140.915 11.3019C138.538 11.3019 136.532 12.1297 134.9 13.7853C133.267 15.4124 132.451 17.4106 132.451 19.7798C132.451 22.1491 133.267 24.1615 134.9 25.8171Z" fill="black"/>
<path d="M160.454 14.6845C160.454 15.655 160.883 16.4258 161.743 16.9967C162.602 17.5676 163.648 18.01 164.879 18.324C166.111 18.638 167.343 18.9948 168.574 19.3945C169.806 19.7655 170.852 20.4078 171.711 21.3213C172.57 22.2062 173 23.3765 173 24.8323C173 26.6592 172.27 28.1435 170.809 29.2853C169.376 30.4271 167.515 30.998 165.223 30.998C163.161 30.998 161.399 30.5413 159.938 29.6279C158.506 28.7144 157.503 27.5298 156.93 26.074L159.337 24.661C159.738 25.7743 160.454 26.6592 161.485 27.3157C162.545 27.9437 163.791 28.2577 165.223 28.2577C166.627 28.2577 167.801 27.9865 168.746 27.4442C169.692 26.8733 170.164 26.0027 170.164 24.8323C170.164 23.8618 169.735 23.091 168.875 22.5201C168.016 21.9492 166.97 21.5068 165.739 21.1928C164.507 20.8788 163.275 20.5363 162.044 20.1652C160.812 19.7655 159.766 19.1233 158.907 18.2384C158.048 17.3249 157.618 16.1403 157.618 14.6845C157.618 12.9433 158.305 11.4875 159.68 10.3171C161.084 9.14676 162.846 8.56158 164.965 8.56158C166.713 8.56158 168.245 8.96121 169.563 9.76048C170.88 10.5312 171.854 11.5874 172.484 12.929L170.121 14.2992C169.291 12.301 167.572 11.3019 164.965 11.3019C163.734 11.3019 162.674 11.6016 161.786 12.2011C160.898 12.772 160.454 13.5998 160.454 14.6845Z" fill="black"/>
</svg>
