<svg width="1032" height="92" viewBox="0 0 1032 92" fill="none" xmlns="http://www.w3.org/2000/svg">
<path d="M50.7339 90L0.519309 46.1878L50.7339 2.25008H66.4259L16.2114 46.1878L66.4259 90H50.7339ZM91.3615 90H81.0676V2.25008H91.3615V90ZM157.42 2.25008L124.027 75.1867L117.123 90H105.825L116.37 66.7758L145.996 2.25008H157.42ZM266.442 75.8144C266.567 73.1781 266.693 70.6674 266.693 68.1567H277.112C276.987 70.7929 276.861 73.5547 276.736 76.3165C276.359 84.0998 270.082 90.5021 262.173 90.7532C249.494 91.3809 236.815 91.632 224.261 91.632C211.582 91.632 198.903 91.3809 186.349 90.7532C178.441 90.5021 172.164 84.0998 171.787 76.3165C170.657 56.2307 170.657 36.1449 171.787 16.0591C172.164 8.15029 178.441 1.87347 186.349 1.49686C198.903 0.869178 211.582 0.618109 224.261 0.618109C236.815 0.618109 249.494 0.869178 262.173 1.49686C270.082 1.87347 276.359 8.15029 276.736 16.0591C276.861 18.6953 276.987 21.4571 277.112 24.2189H266.693C266.693 21.5827 266.567 19.072 266.442 16.5612C266.316 15.3059 265.814 14.176 264.935 13.2973C264.056 12.4185 262.927 11.9164 261.671 11.7908C249.243 11.2887 236.689 10.9121 224.261 10.9121C211.833 10.9121 199.154 11.2887 186.726 11.7908C185.596 11.9164 184.341 12.4185 183.462 13.2973C182.583 14.176 182.081 15.3059 182.081 16.5612C181.077 36.1449 181.077 56.1052 182.081 75.8144C182.081 76.9442 182.583 78.1996 183.462 79.0783C184.341 79.9571 185.596 80.4592 186.726 80.4592C199.154 81.0869 211.833 81.338 224.261 81.338C236.689 81.338 249.243 81.0869 261.671 80.4592C262.927 80.4592 264.056 79.9571 264.935 79.0783C265.814 78.1996 266.316 76.9442 266.442 75.8144ZM385.93 2.25008H396.224V90H385.93V51.3348H303.327V90H293.033V2.25008H303.327V41.0408H385.93V2.25008ZM498.843 12.5441H426.534V41.0408H498.843V51.3348H426.534V79.706H498.843V90H416.24V2.25008H498.843V12.5441ZM515.541 2.25008H597.767C605.676 2.62669 611.953 8.90351 612.33 16.8123V42.0451C611.953 49.9539 605.551 56.2307 597.767 56.6073H569.647L618.732 90H600.404L551.319 56.6073H525.835V90H515.541V2.25008ZM597.265 12.5441H525.835V46.1878L597.265 46.3133C598.521 46.1878 599.65 45.6857 600.529 44.8069C601.408 43.9282 601.91 42.7983 602.036 41.543L601.91 17.3144C601.91 16.0591 601.408 14.9292 600.529 14.0505C599.65 13.1717 598.521 12.6696 597.265 12.5441ZM734.219 2.25008L669.693 46.1878L734.219 90L715.89 90.1255L659.022 51.3348H641.322V90.1255H631.028V2.25008H641.322V41.0408H658.897L715.765 2.37562L734.219 2.25008ZM829.383 90L820.721 71.1695H757.451L748.789 90H737.49L777.662 2.25008H800.51L840.681 90H829.383ZM762.221 60.75H815.951L793.856 12.5441H784.315L762.221 60.75ZM937.821 51.3348H864.131C856.222 50.9582 849.945 44.6814 849.569 36.7726V24.0934C849.569 21.4571 849.694 18.6953 849.82 15.9335C850.196 8.15029 856.599 1.87347 864.382 1.49686C877.061 0.869178 888.485 0.618109 901.164 0.618109C913.843 0.618109 925.267 0.869178 937.946 1.49686C945.73 1.87347 952.132 8.15029 952.509 15.9335C952.634 18.6953 952.76 21.4571 952.76 24.0934H942.466C942.34 21.5827 942.34 19.072 942.215 16.5612C942.089 15.3059 941.587 14.0505 940.708 13.1717C939.829 12.293 938.7 11.7908 937.444 11.7908C925.016 11.1632 913.592 10.9121 901.164 10.9121C888.736 10.9121 877.312 11.1632 864.884 11.7908C863.629 11.7908 862.499 12.293 861.62 13.1717C860.742 14.0505 860.239 15.3059 860.239 16.5612C860.114 19.072 859.988 21.5827 859.863 24.0934V36.2704C859.863 37.5258 860.365 38.6556 861.244 39.5344C862.122 40.4131 863.378 40.9153 864.633 41.0408H938.197C946.106 41.2919 952.383 47.6942 952.76 55.4775V68.1567C952.76 70.9185 952.634 73.5547 952.509 76.3165C952.132 84.2253 945.73 90.5021 937.946 90.8788C925.267 91.3809 913.843 91.7575 901.164 91.7575C888.485 91.7575 877.061 91.3809 864.382 90.8788C856.599 90.5021 850.196 84.2253 849.82 76.3165C849.694 73.5547 849.569 70.9185 849.569 68.1567H859.863C859.988 70.6674 859.988 73.3037 860.114 75.8144C860.239 77.0698 860.742 78.1996 861.62 79.0783C862.499 79.9571 863.629 80.4592 864.884 80.4592C877.312 81.0869 888.736 81.338 901.164 81.338C913.592 81.338 925.016 81.0869 937.444 80.4592C938.7 80.4592 939.829 79.9571 940.708 79.0783C941.587 78.1996 942.089 77.0698 942.089 75.8144C942.215 73.3037 942.34 70.6674 942.466 68.1567V55.9796C942.466 54.8498 941.964 53.5945 941.085 52.7157C940.206 51.8369 938.951 51.3348 937.821 51.3348ZM981.398 2.25008L1031.61 46.1878L981.398 90H965.706L1015.92 46.1878L965.706 2.25008H981.398Z" fill="white"/>
</svg>
