<svg width="26" height="26" viewBox="0 0 26 26" fill="none" xmlns="http://www.w3.org/2000/svg">
<path fill-rule="evenodd" clip-rule="evenodd" d="M13.0005 6.80999C9.58394 6.80999 6.80999 9.58394 6.80999 13.0005C6.80999 16.417 9.58394 19.1909 13.0005 19.1909C16.417 19.1909 19.1909 16.417 19.1909 13.0005C19.1909 9.58394 16.417 6.80999 13.0005 6.80999ZM13.0005 8.04808C15.7336 8.04808 17.9528 10.2674 17.9528 13.0005C17.9528 15.7336 15.7336 17.9528 13.0005 17.9528C10.2674 17.9528 8.04808 15.7336 8.04808 13.0005C8.04808 10.2674 10.2674 8.04808 13.0005 8.04808ZM12.3814 20.429V22.2862C12.3814 22.4504 12.4466 22.6078 12.5627 22.7239C12.6788 22.84 12.8363 22.9052 13.0005 22.9052C13.1646 22.9052 13.3221 22.84 13.4382 22.7239C13.5543 22.6078 13.6195 22.4504 13.6195 22.2862V20.429C13.6195 20.2649 13.5543 20.1074 13.4382 19.9913C13.3221 19.8752 13.1646 19.81 13.0005 19.81C12.8363 19.81 12.6788 19.8752 12.5627 19.9913C12.4466 20.1074 12.3814 20.2649 12.3814 20.429ZM16.1787 19.7431L17.1072 21.3514C17.1899 21.4924 17.325 21.595 17.483 21.6368C17.6411 21.6786 17.8092 21.6562 17.9508 21.5744C18.0924 21.4927 18.1959 21.3583 18.2387 21.2005C18.2815 21.0428 18.2602 20.8745 18.1794 20.7324L17.2508 19.1241C17.1682 18.9831 17.0331 18.8805 16.875 18.8387C16.717 18.7969 16.5488 18.8193 16.4073 18.9011C16.2657 18.9828 16.1622 19.1172 16.1194 19.275C16.0766 19.4327 16.0979 19.601 16.1787 19.7431ZM8.75008 19.1241L7.82151 20.7324C7.74072 20.8745 7.71941 21.0428 7.76224 21.2005C7.80507 21.3583 7.90856 21.4927 8.05013 21.5744C8.1917 21.6562 8.35985 21.6786 8.51789 21.6368C8.67593 21.595 8.81103 21.4924 8.8937 21.3514L9.82227 19.7431C9.90307 19.601 9.92438 19.4327 9.88155 19.275C9.83872 19.1172 9.73523 18.9828 9.59366 18.9011C9.45209 18.8193 9.28394 18.7969 9.1259 18.8387C8.96786 18.8805 8.83276 18.9831 8.75008 19.1241ZM6.2578 16.1787L4.64951 17.1072C4.50849 17.1899 4.40589 17.325 4.36411 17.483C4.32232 17.6411 4.34475 17.8092 4.42649 17.9508C4.50822 18.0924 4.64264 18.1959 4.8004 18.2387C4.95816 18.2815 5.12645 18.2602 5.26856 18.1794L6.87685 17.2508C7.01787 17.1682 7.12047 17.0331 7.16225 16.875C7.20403 16.717 7.18161 16.5488 7.09987 16.4073C7.01814 16.2657 6.88372 16.1622 6.72596 16.1194C6.5682 16.0766 6.39991 16.0979 6.2578 16.1787ZM19.1241 17.2508L20.7324 18.1794C20.8745 18.2602 21.0428 18.2815 21.2005 18.2387C21.3583 18.1959 21.4927 18.0924 21.5744 17.9508C21.6562 17.8092 21.6786 17.6411 21.6368 17.483C21.595 17.325 21.4924 17.1899 21.3514 17.1072L19.7431 16.1787C19.601 16.0979 19.4327 16.0766 19.275 16.1194C19.1172 16.1622 18.9828 16.2657 18.9011 16.4073C18.8193 16.5488 18.7969 16.717 18.8387 16.875C18.8805 17.0331 18.9831 17.1682 19.1241 17.2508ZM5.57189 12.3814H3.71475C3.55057 12.3814 3.39311 12.4466 3.27702 12.5627C3.16092 12.6788 3.0957 12.8363 3.0957 13.0005C3.0957 13.1646 3.16092 13.3221 3.27702 13.4382C3.39311 13.5543 3.55057 13.6195 3.71475 13.6195H5.57189C5.73608 13.6195 5.89353 13.5543 6.00963 13.4382C6.12572 13.3221 6.19094 13.1646 6.19094 13.0005C6.19094 12.8363 6.12572 12.6788 6.00963 12.5627C5.89353 12.4466 5.73608 12.3814 5.57189 12.3814ZM20.429 13.6195H22.2862C22.4504 13.6195 22.6078 13.5543 22.7239 13.4382C22.84 13.3221 22.9052 13.1646 22.9052 13.0005C22.9052 12.8363 22.84 12.6788 22.7239 12.5627C22.6078 12.4466 22.4504 12.3814 22.2862 12.3814H20.429C20.2649 12.3814 20.1074 12.4466 19.9913 12.5627C19.8752 12.6788 19.81 12.8363 19.81 13.0005C19.81 13.1646 19.8752 13.3221 19.9913 13.4382C20.1074 13.5543 20.2649 13.6195 20.429 13.6195ZM19.7431 9.82227L21.3514 8.8937C21.4924 8.81103 21.595 8.67593 21.6368 8.51789C21.6786 8.35985 21.6562 8.1917 21.5744 8.05013C21.4927 7.90856 21.3583 7.80507 21.2005 7.76224C21.0428 7.71941 20.8745 7.74072 20.7324 7.82151L19.1241 8.75008C18.9831 8.83276 18.8805 8.96786 18.8387 9.1259C18.7969 9.28394 18.8193 9.45209 18.9011 9.59366C18.9828 9.73523 19.1172 9.83872 19.275 9.88155C19.4327 9.92438 19.601 9.90307 19.7431 9.82227ZM6.87685 8.75008L5.26856 7.82151C5.12645 7.74072 4.95816 7.71941 4.8004 7.76224C4.64264 7.80507 4.50822 7.90856 4.42649 8.05013C4.34475 8.1917 4.32232 8.35985 4.36411 8.51789C4.40589 8.67593 4.50849 8.81103 4.64951 8.8937L6.2578 9.82227C6.39991 9.90307 6.5682 9.92438 6.72596 9.88155C6.88372 9.83872 7.01814 9.73523 7.09987 9.59366C7.18161 9.45209 7.20403 9.28394 7.16225 9.1259C7.12047 8.96786 7.01787 8.83276 6.87685 8.75008ZM9.82227 6.2578L8.8937 4.64951C8.81103 4.50849 8.67593 4.40589 8.51789 4.36411C8.35985 4.32232 8.1917 4.34475 8.05013 4.42649C7.90856 4.50822 7.80507 4.64264 7.76224 4.8004C7.71941 4.95816 7.74072 5.12645 7.82151 5.26856L8.75008 6.87685C8.83276 7.01787 8.96786 7.12047 9.1259 7.16225C9.28394 7.20403 9.45209 7.18161 9.59366 7.09987C9.73523 7.01814 9.83872 6.88372 9.88155 6.72596C9.92438 6.5682 9.90307 6.39991 9.82227 6.2578ZM17.2508 6.87685L18.1794 5.26856C18.2602 5.12645 18.2815 4.95816 18.2387 4.8004C18.1959 4.64264 18.0924 4.50822 17.9508 4.42649C17.8092 4.34475 17.6411 4.32232 17.483 4.36411C17.325 4.40589 17.1899 4.50849 17.1072 4.64951L16.1787 6.2578C16.0979 6.39991 16.0766 6.5682 16.1194 6.72596C16.1622 6.88372 16.2657 7.01814 16.4073 7.09987C16.5488 7.18161 16.717 7.20403 16.875 7.16225C17.0331 7.12047 17.1682 7.01787 17.2508 6.87685ZM13.6195 5.57189V3.71475C13.6195 3.55057 13.5543 3.39311 13.4382 3.27702C13.3221 3.16092 13.1646 3.0957 13.0005 3.0957C12.8363 3.0957 12.6788 3.16092 12.5627 3.27702C12.4466 3.39311 12.3814 3.55057 12.3814 3.71475V5.57189C12.3814 5.73608 12.4466 5.89353 12.5627 6.00963C12.6788 6.12572 12.8363 6.19094 13.0005 6.19094C13.1646 6.19094 13.3221 6.12572 13.4382 6.00963C13.5543 5.89353 13.6195 5.73608 13.6195 5.57189Z" fill="#0000FF"/>
</svg>
