<svg width="26" height="26" viewBox="0 0 26 26" fill="none" xmlns="http://www.w3.org/2000/svg">
<path fill-rule="evenodd" clip-rule="evenodd" d="M16.721 19.8537L18.081 19.2829L16.721 18.7122C14.4905 17.7756 12.9219 15.5699 12.9219 13.0008C12.9219 10.4318 14.4905 8.22613 16.721 7.28951L18.081 6.71875L16.721 6.14799C15.812 5.76683 14.8361 5.5711 13.8504 5.57227C9.75049 5.57227 6.42188 8.90089 6.42188 13.0008C6.42188 17.1008 9.75049 20.4294 13.8504 20.4294C14.8675 20.4294 15.8376 20.2245 16.721 19.8537ZM14.8818 19.1059C14.541 19.1629 14.196 19.1915 13.8504 19.1913C10.4339 19.1913 7.65997 16.4174 7.65997 13.0008C7.65997 9.58432 10.4339 6.81037 13.8504 6.81037C14.2014 6.81037 14.5463 6.83946 14.8818 6.89579C13.8947 7.57886 13.088 8.49119 12.531 9.55453C11.974 10.6179 11.6833 11.8005 11.6838 13.0008C11.6838 15.529 12.9491 17.7638 14.8805 19.1053L14.8818 19.1059Z" fill="#0000FF"/>
<path fill-rule="evenodd" clip-rule="evenodd" d="M22.2256 11.8798L22.5035 12.7353H23.403L22.6756 13.264L22.9536 14.1195L22.2256 13.5908L21.4982 14.1195L21.7761 13.264L21.0481 12.7353H21.9476L22.2256 11.8798ZM6.25165 4.02344L6.5296 4.87896H7.42908L6.70108 5.40763L6.97903 6.26315L6.25165 5.73449L5.52365 6.26315L5.8016 5.40763L5.07422 4.87896H5.97369L6.25165 4.02344ZM7.42908 19.8092L7.70703 20.6647H8.6065L7.87912 21.1933L8.15708 22.0489L7.42908 21.5202L6.70108 22.0489L6.97903 21.1933L6.25165 20.6647H7.15112L7.42908 19.8092Z" fill="#0000FF"/>
</svg>
